<svg width="1200" height="630" viewBox="0 0 1200 630" fill="none" xmlns="http://www.w3.org/2000/svg">
  <rect width="1200" height="630" fill="#050816"/>
  <g opacity="0.45">
    <circle cx="205" cy="80" r="260" fill="#7C3AED"/>
    <circle cx="1000" cy="150" r="220" fill="#22D3EE"/>
    <circle cx="730" cy="560" r="240" fill="#10B981"/>
  </g>
  <path d="M0 120H1200M0 210H1200M0 300H1200M0 390H1200M0 480H1200M120 0V630M240 0V630M360 0V630M480 0V630M600 0V630M720 0V630M840 0V630M960 0V630M1080 0V630" stroke="#94A3B8" stroke-opacity="0.12"/>
  <rect x="80" y="80" width="1040" height="470" rx="24" fill="#0B1020" fill-opacity="0.78" stroke="#94A3B8" stroke-opacity="0.22"/>
  <rect x="112" y="112" width="68" height="68" rx="16" fill="#11172B" stroke="#22D3EE" stroke-opacity="0.38"/>
  <rect x="137" y="137" width="18" height="18" rx="4" fill="url(#mark)"/>
  <text x="205" y="154" fill="#F8FAFC" font-family="Inter, Arial, sans-serif" font-size="28" font-weight="700" letter-spacing="8">ALKYORA</text>
  <text x="112" y="285" fill="#F8FAFC" font-family="Inter, Arial, sans-serif" font-size="72" font-weight="750">AI Systems Built Fast.</text>
  <text x="112" y="370" fill="#F8FAFC" font-family="Inter, Arial, sans-serif" font-size="72" font-weight="750">Secured from Day One.</text>
  <text x="112" y="450" fill="#94A3B8" font-family="Inter, Arial, sans-serif" font-size="28">AI Systems Studio with Security Built In</text>
  <defs>
    <linearGradient id="mark" x1="137" y1="137" x2="155" y2="155" gradientUnits="userSpaceOnUse">
      <stop stop-color="#22D3EE"/>
      <stop offset="1" stop-color="#7C3AED"/>
    </linearGradient>
  </defs>
</svg>
